<svg width="149" height="34" viewBox="0 0 149 34" fill="none" xmlns="http://www.w3.org/2000/svg">
<rect y="0.0739746" width="149" height="33" rx="5" fill="white"/>
<path d="M30.732 16.814C31.5853 17.014 32.2453 17.4273 32.712 18.054C33.192 18.6673 33.432 19.3806 33.432 20.194C33.432 21.434 33.0186 22.394 32.192 23.074C31.3786 23.7406 30.2053 24.074 28.672 24.074H21.252V9.91397H28.472C29.912 9.91397 31.0453 10.2273 31.872 10.854C32.6986 11.4806 33.112 12.394 33.112 13.594C33.112 14.4206 32.892 15.1206 32.452 15.694C32.0253 16.254 31.452 16.6273 30.732 16.814ZM25.692 15.434H27.412C27.812 15.434 28.1053 15.354 28.292 15.194C28.492 15.034 28.592 14.7873 28.592 14.454C28.592 14.1073 28.492 13.854 28.292 13.694C28.1053 13.5206 27.812 13.434 27.412 13.434H25.692V15.434ZM27.712 20.514C28.112 20.514 28.4053 20.4406 28.592 20.294C28.792 20.134 28.892 19.8806 28.892 19.534C28.892 18.854 28.4986 18.514 27.712 18.514H25.692V20.514H27.712ZM39.2638 9.91397V17.894C39.2638 18.5473 39.4038 19.0673 39.6838 19.454C39.9772 19.8273 40.4438 20.014 41.0838 20.014C41.7238 20.014 42.1972 19.8273 42.5038 19.454C42.8105 19.0673 42.9638 18.5473 42.9638 17.894V9.91397H47.3838V17.894C47.3838 19.2406 47.1038 20.394 46.5438 21.354C45.9838 22.3006 45.2172 23.014 44.2438 23.494C43.2705 23.974 42.1838 24.214 40.9838 24.214C39.7838 24.214 38.7172 23.974 37.7838 23.494C36.8638 23.014 36.1438 22.3006 35.6238 21.354C35.1038 20.4073 34.8438 19.254 34.8438 17.894V9.91397H39.2638ZM62.8988 9.91397L57.8188 19.774V24.074H53.3788V19.774L48.2988 9.91397H53.3788L55.6388 14.934L57.8988 9.91397H62.8988ZM80.8866 24.074H76.4466L71.7466 16.954V24.074H67.3066V9.91397H71.7466L76.4466 17.154V9.91397H80.8866V24.074ZM89.7926 24.214C88.4592 24.214 87.2326 23.9006 86.1126 23.274C85.0059 22.6473 84.1259 21.7806 83.4726 20.674C82.8192 19.5673 82.4926 18.3206 82.4926 16.934C82.4926 15.5473 82.8192 14.3006 83.4726 13.194C84.1259 12.0873 85.0059 11.2273 86.1126 10.614C87.2326 9.98731 88.4592 9.67397 89.7926 9.67397C91.1259 9.67397 92.3459 9.98731 93.4526 10.614C94.5592 11.2273 95.4326 12.0873 96.0726 13.194C96.7259 14.3006 97.0526 15.5473 97.0526 16.934C97.0526 18.3206 96.7259 19.5673 96.0726 20.674C95.4326 21.7806 94.5526 22.6473 93.4326 23.274C92.3259 23.9006 91.1126 24.214 89.7926 24.214ZM89.7926 20.074C90.6726 20.074 91.3526 19.794 91.8326 19.234C92.3126 18.6606 92.5526 17.894 92.5526 16.934C92.5526 15.9606 92.3126 15.194 91.8326 14.634C91.3526 14.0606 90.6726 13.774 89.7926 13.774C88.8992 13.774 88.2126 14.0606 87.7326 14.634C87.2526 15.194 87.0126 15.9606 87.0126 16.934C87.0126 17.894 87.2526 18.6606 87.7326 19.234C88.2126 19.794 88.8992 20.074 89.7926 20.074ZM119.054 9.91397L115.814 24.074H110.294L108.654 16.034L107.014 24.074H101.494L98.2543 9.91397H103.034L104.314 18.834L106.234 9.91397H111.074L112.994 18.834L114.274 9.91397H119.054ZM126.626 8.97397L126.106 18.454H122.306L121.786 8.97397H126.626ZM124.206 24.234C123.433 24.234 122.813 24.0273 122.346 23.614C121.88 23.2006 121.646 22.6806 121.646 22.054C121.646 21.414 121.88 20.8873 122.346 20.474C122.813 20.0473 123.433 19.834 124.206 19.834C124.966 19.834 125.58 20.0473 126.046 20.474C126.513 20.8873 126.746 21.414 126.746 22.054C126.746 22.6806 126.513 23.2006 126.046 23.614C125.58 24.0273 124.966 24.234 124.206 24.234Z" fill="#273164"/>
</svg>
