<svg width="33" height="34" viewBox="0 0 33 34" fill="none" xmlns="http://www.w3.org/2000/svg">
<rect y="0.0739746" width="33" height="33" rx="5" fill="white"/>
<path d="M24.903 19.8357L22.8281 11.652C22.7735 11.439 22.658 11.2465 22.4956 11.0981C22.3333 10.9497 22.1312 10.852 21.9141 10.8167L19.3786 10.4005C19.0991 10.3555 18.8128 10.4161 18.5755 10.5705C18.3382 10.7249 18.1668 10.962 18.0947 11.2358L18.0799 11.2955C18.0704 11.3335 18.0688 11.3731 18.0754 11.4117C18.082 11.4502 18.0966 11.487 18.1183 11.5197C18.1399 11.5523 18.1681 11.5801 18.2011 11.6011C18.2341 11.6222 18.2711 11.6362 18.3098 11.6422C18.8916 11.7276 19.4656 11.8597 20.0262 12.0373C20.1663 12.0796 20.2851 12.1736 20.3585 12.3003C20.4319 12.4269 20.4543 12.5768 20.4213 12.7194C20.4024 12.7937 20.3684 12.8633 20.3215 12.924C20.2746 12.9847 20.2158 13.0352 20.1487 13.0723C20.0816 13.1095 20.0076 13.1325 19.9313 13.14C19.855 13.1475 19.7779 13.1393 19.7048 13.1159C17.6249 12.478 15.4018 12.4756 13.3205 13.1089C13.1796 13.1563 13.0259 13.1475 12.8913 13.0846C12.7567 13.0216 12.6516 12.9092 12.5977 12.7707C12.572 12.6996 12.561 12.6241 12.5652 12.5487C12.5694 12.4733 12.5887 12.3995 12.6221 12.3317C12.6554 12.2639 12.702 12.2035 12.7592 12.1542C12.8164 12.1048 12.8829 12.0675 12.9548 12.0444C13.5224 11.8636 14.1037 11.7291 14.693 11.6422C14.7317 11.6362 14.7687 11.6222 14.8017 11.6011C14.8347 11.5801 14.8629 11.5523 14.8845 11.5197C14.9062 11.487 14.9208 11.4502 14.9274 11.4117C14.934 11.3731 14.9325 11.3335 14.9229 11.2955L14.9081 11.2358C14.836 10.9618 14.6643 10.7245 14.4267 10.5702C14.1891 10.4159 13.9025 10.3556 13.6228 10.4012L11.0859 10.8174C10.8689 10.8526 10.6669 10.9503 10.5046 11.0985C10.3422 11.2468 10.2266 11.4391 10.1719 11.652L8.09696 19.8357C8.0319 20.0929 8.06021 20.3649 8.17686 20.6032C8.29351 20.8415 8.49093 21.0308 8.73399 21.1372L13.4449 23.2262C13.5866 23.2891 13.7396 23.3225 13.8946 23.3241C14.0496 23.3258 14.2033 23.2957 14.3463 23.2358C14.4893 23.1759 14.6185 23.0874 14.726 22.9757C14.8335 22.864 14.917 22.7315 14.9714 22.5863L15.2168 21.9219C15.2314 21.8821 15.2369 21.8395 15.2327 21.7973C15.2285 21.7551 15.2149 21.7144 15.1928 21.6782C15.1707 21.642 15.1407 21.6113 15.105 21.5884C15.0693 21.5654 15.029 21.5508 14.9869 21.5457C14.3038 21.463 13.6299 21.317 12.9738 21.1098C12.8343 21.0673 12.716 20.9736 12.6428 20.8474C12.5696 20.7213 12.5469 20.572 12.5794 20.4298C12.5982 20.3553 12.6321 20.2854 12.6789 20.2245C12.7258 20.1636 12.7846 20.1129 12.8518 20.0756C12.9191 20.0384 12.9932 20.0152 13.0697 20.0077C13.1462 20.0002 13.2234 20.0084 13.2966 20.0319C15.3843 20.6712 17.6157 20.6712 19.7034 20.0319C19.7765 20.0085 19.8536 20.0003 19.93 20.0079C20.0064 20.0154 20.0804 20.0385 20.1475 20.0757C20.2146 20.1129 20.2734 20.1635 20.3203 20.2243C20.3671 20.285 20.401 20.3548 20.4199 20.4291C20.4527 20.5715 20.4303 20.7209 20.357 20.8473C20.2838 20.9737 20.1653 21.0675 20.0255 21.1098C19.3696 21.3171 18.696 21.4631 18.0131 21.5457C17.971 21.5508 17.9307 21.5654 17.895 21.5884C17.8593 21.6113 17.8293 21.642 17.8072 21.6782C17.7851 21.7144 17.7715 21.7551 17.7673 21.7973C17.7632 21.8395 17.7686 21.8821 17.7832 21.9219L18.0286 22.5863C18.0831 22.7314 18.1667 22.8638 18.2742 22.9755C18.3817 23.0871 18.5109 23.1756 18.6538 23.2355C18.7968 23.2954 18.9504 23.3255 19.1054 23.3239C19.2604 23.3223 19.4134 23.289 19.5551 23.2262L24.266 21.1372C24.5091 21.0308 24.7065 20.8415 24.8231 20.6032C24.9398 20.3649 24.9681 20.0929 24.903 19.8357ZM13.9688 18.2614C13.8019 18.2614 13.6387 18.2119 13.5 18.1192C13.3612 18.0265 13.2531 17.8947 13.1892 17.7405C13.1254 17.5864 13.1087 17.4167 13.1412 17.253C13.1738 17.0894 13.2541 16.939 13.3721 16.821C13.4901 16.703 13.6405 16.6227 13.8041 16.5901C13.9678 16.5576 14.1375 16.5743 14.2916 16.6381C14.4458 16.702 14.5776 16.8101 14.6703 16.9489C14.763 17.0876 14.8125 17.2508 14.8125 17.4176C14.8125 17.6414 14.7236 17.856 14.5654 18.0143C14.4071 18.1725 14.1925 18.2614 13.9688 18.2614ZM19.0313 18.2614C18.8644 18.2614 18.7012 18.2119 18.5625 18.1192C18.4237 18.0265 18.3156 17.8947 18.2517 17.7405C18.1879 17.5864 18.1712 17.4167 18.2037 17.253C18.2363 17.0894 18.3166 16.939 18.4346 16.821C18.5526 16.703 18.703 16.6227 18.8666 16.5901C19.0303 16.5576 19.2 16.5743 19.3541 16.6381C19.5083 16.702 19.6401 16.8101 19.7328 16.9489C19.8255 17.0876 19.875 17.2508 19.875 17.4176C19.875 17.6414 19.7861 17.856 19.6279 18.0143C19.4696 18.1725 19.255 18.2614 19.0313 18.2614Z" fill="#273164"/>
</svg>
