<svg width="33" height="34" viewBox="0 0 33 34" fill="none" xmlns="http://www.w3.org/2000/svg">
<rect y="0.0739746" width="33" height="33" rx="5" fill="white"/>
<path d="M23.5932 9.41557C23.506 9.34032 23.4 9.29027 23.2865 9.27081C23.173 9.25136 23.0563 9.26324 22.9491 9.30518L8.69956 14.8817C8.49761 14.9602 8.32664 15.1022 8.21238 15.2863C8.09812 15.4704 8.04676 15.6867 8.06604 15.9025C8.08531 16.1183 8.17417 16.322 8.31925 16.483C8.46432 16.6439 8.65775 16.7534 8.87042 16.7949L12.5625 17.5198V21.6366C12.5618 21.8608 12.6284 22.0801 12.7538 22.266C12.8792 22.452 13.0575 22.5959 13.2656 22.6793C13.4735 22.7642 13.7021 22.7846 13.9216 22.7378C14.1412 22.691 14.3416 22.5793 14.4968 22.4171L16.2771 20.5707L19.1016 23.0428C19.3054 23.2236 19.5682 23.3236 19.8406 23.3241C19.9599 23.324 20.0786 23.3053 20.1921 23.2685C20.3777 23.2097 20.5446 23.1032 20.6763 22.9597C20.8079 22.8162 20.8996 22.6408 20.9424 22.4508L23.7964 10.035C23.8219 9.92305 23.8165 9.80624 23.7807 9.69712C23.7449 9.58799 23.68 9.49067 23.5932 9.41557ZM19.842 22.1991L14.0285 17.1014L22.3957 11.1045L19.842 22.1991Z" fill="#273164"/>
</svg>
