<svg width="33" height="34" viewBox="0 0 33 34" fill="none" xmlns="http://www.w3.org/2000/svg">
<rect y="0.0739746" width="33" height="33" rx="5" fill="white"/>
<path d="M22.6172 23.0322C22.5688 23.1204 22.4976 23.194 22.411 23.2453C22.3244 23.2967 22.2257 23.3238 22.125 23.324H18.75C18.6554 23.3239 18.5622 23.3 18.4793 23.2544C18.3963 23.2088 18.3262 23.143 18.2754 23.0631L15.4285 18.5891L11.2913 23.1398C11.1904 23.2481 11.0509 23.3123 10.903 23.3185C10.7552 23.3247 10.6108 23.2723 10.5013 23.1728C10.3917 23.0732 10.3258 22.9345 10.3179 22.7867C10.3099 22.6389 10.3606 22.4939 10.4588 22.3832L14.802 17.6019L10.4004 10.6888C10.3462 10.6038 10.3159 10.5057 10.3126 10.4049C10.3093 10.3041 10.3331 10.2043 10.3816 10.1159C10.4302 10.0274 10.5016 9.9537 10.5884 9.90234C10.6752 9.85099 10.7742 9.82393 10.875 9.82397H14.25C14.3447 9.824 14.4378 9.84793 14.5208 9.89353C14.6038 9.93913 14.6739 10.0049 14.7246 10.0848L17.5716 14.5588L21.7088 10.0082C21.8096 9.89985 21.9491 9.83563 22.097 9.82946C22.2449 9.82328 22.3893 9.87564 22.4988 9.97519C22.6083 10.0747 22.6742 10.2134 22.6822 10.3612C22.6901 10.5091 22.6395 10.654 22.5413 10.7648L18.1981 15.5425L22.5996 22.4598C22.6535 22.5449 22.6836 22.6429 22.6867 22.7436C22.6898 22.8443 22.6658 22.9439 22.6172 23.0322Z" fill="#273164"/>
</svg>
