<svg width="140" height="76" viewBox="0 0 140 76" fill="none" xmlns="http://www.w3.org/2000/svg">
<g clip-path="url(#clip0_26_479)">
<path d="M84.58 0C86.3245 0.155679 88.0675 0.316172 89.812 0.467036C91.8744 0.646788 93.9142 0.987034 95.9445 1.38024C97.0872 1.60172 97.4451 2.02222 97.3922 3.20505C97.275 5.86764 96.8625 8.50294 96.5929 11.1511C96.4324 12.7191 96.2109 14.2807 96.028 15.8471C95.8514 17.3461 95.4133 17.6559 93.9367 17.3734C90.003 16.6191 86.0661 15.8792 82.1292 15.1377C81.0443 14.9339 80.9656 14.9901 80.9496 16.083C80.8886 19.9862 80.8389 23.891 80.7843 27.7942C80.7715 28.6737 80.7442 29.5516 80.7506 30.4311C80.757 31.3524 80.9496 31.5 81.8163 31.2914C82.4438 31.1405 83.0633 30.9495 83.694 30.8099C84.3697 30.659 84.6249 30.3365 84.4837 29.5982C83.9524 26.8329 83.4806 24.0563 82.9782 21.2846C82.6813 19.6444 82.9943 19.2432 84.6281 19.2383C89.1283 19.2271 93.6286 19.2175 98.1288 19.2127C99.6406 19.2111 99.8621 19.4438 99.745 20.9267C99.2362 27.2919 98.7258 33.6587 98.2107 40.0238C98.1529 40.7444 98.0646 41.4635 97.9956 42.1841C97.9298 42.8726 97.5863 43.269 96.8705 43.3284C94.0105 43.5659 91.1538 43.8291 88.2922 44.0474C87.3966 44.1164 87.0997 43.8436 86.9184 42.9368C86.7418 42.0493 86.5749 41.1585 86.4545 40.263C86.3727 39.6563 86.148 39.6065 85.6424 39.8746C83.4148 41.0574 81.0957 42.0188 78.5647 42.2868C73.6969 42.802 69.1646 41.9867 65.3914 38.6083C63.1782 36.6262 62.0387 33.9925 61.1913 31.216C59.978 27.2389 59.917 23.1849 60.2717 19.0778C60.522 16.1761 60.9104 13.3209 62.058 10.6214C64.1396 5.7264 67.7458 2.59999 72.9137 1.27432C75.48 0.616294 78.088 0.287283 80.7249 0.134814C81.0282 0.11716 81.3508 0.179753 81.6333 0C82.6139 0 83.5961 0 84.58 0Z" fill="white"/>
<path d="M0.11681 1.84067C0.620759 0.996477 1.26467 0.93086 2.2164 0.932465C8.96515 0.94049 15.7123 0.918021 22.461 0.903577C23.753 0.900367 25.0482 0.926046 26.3386 0.865058C29.6239 0.70938 32.2816 2.0158 34.4595 4.36542C38.0754 8.26701 39.239 12.9711 38.6917 18.1422C38.321 21.6538 36.9728 24.7609 34.1706 27.0351C30.5178 30.001 26.2904 31.1614 21.6265 30.6205C19.2752 30.3477 19.272 30.2835 19.1003 32.6732C18.9254 35.0967 18.7697 37.5217 18.614 39.9468C18.5241 41.3286 18.1101 41.7507 16.7571 41.7684C12.7255 41.8198 8.69391 41.9562 4.66232 41.7684C2.92096 41.6881 2.49084 41.2693 2.3801 39.5295C2.15541 36.0211 1.95801 32.5111 1.72208 29.0044C1.28875 22.583 0.828133 16.1633 0.391591 9.74194C0.288875 8.22047 0.235912 6.69578 0.154061 5.1727C0.136406 4.84208 -0.108961 2.21883 0.11681 1.84067ZM21.0503 21.1145C22.0855 21.1241 22.1529 21.0551 22.0373 20.0071C21.8688 18.4969 21.6907 16.9882 21.5157 15.478C21.4275 14.7092 21.3424 13.9421 21.2509 13.1733C21.222 12.9342 21.1498 12.6565 20.8754 12.6677C20.625 12.679 20.5255 12.939 20.4998 13.1877C20.4886 13.2905 20.4757 13.3932 20.4693 13.4959C20.3152 15.6802 20.1547 17.8645 20.0103 20.0504C19.9477 20.9877 20.0761 21.1049 21.0503 21.1129V21.1145Z" fill="white"/>
<path d="M109.569 0.874687C112.259 0.874687 114.947 0.869873 117.637 0.876292C119.168 0.881107 119.553 1.29678 119.466 2.84715C119.052 10.2298 118.637 17.6109 118.215 24.9936C118.134 26.4124 118.008 27.8295 117.937 29.2499C117.894 30.1342 118.073 30.2931 118.951 30.2979C119.726 30.3027 120.503 30.2706 121.278 30.306C121.996 30.3381 122.233 30.0395 122.2 29.3366C122.036 25.902 121.908 22.4659 121.757 19.0297C121.521 13.6323 121.274 8.23491 121.044 2.83592C120.985 1.42839 121.513 0.877897 122.903 0.876292C128.022 0.869873 133.142 0.869873 138.262 0.876292C139.587 0.876292 140.056 1.30802 139.99 2.65937C139.851 5.52418 139.642 8.38578 139.449 11.249C139.101 16.4329 138.758 21.6185 138.385 26.8008C138.199 29.3783 138.103 31.9622 137.782 34.5301C137.692 35.2427 137.453 35.8622 137.031 36.4496C135.27 38.8923 132.734 40.2052 130.033 41.2484C125.119 43.147 120.015 43.5755 114.849 42.7811C110.644 42.1343 106.755 40.6497 103.708 37.48C102.863 36.6021 102.412 35.5685 102.313 34.3632C101.785 27.9226 101.263 21.482 100.724 15.0414C100.403 11.204 100.058 7.36825 99.7113 3.53246C99.4962 1.14753 99.7353 0.874687 102.12 0.874687C104.603 0.874687 107.086 0.874687 109.567 0.874687H109.569Z" fill="white"/>
<path d="M49.4753 41.8567C47.4835 41.8567 45.4934 41.8599 43.5017 41.8567C41.9995 41.8535 41.5886 41.4586 41.457 39.9596C40.7749 32.2094 40.1041 24.4576 39.3995 16.709C38.971 11.9985 38.4686 7.29442 38.2102 2.5695C38.1364 1.21333 38.4622 0.908393 39.7943 0.906788C45.8706 0.895554 51.9485 0.885924 58.0248 0.876295C58.3345 0.876295 58.6459 0.876295 58.954 0.901974C59.8769 0.975801 60.2652 1.36901 60.2139 2.29987C60.116 4.07974 59.9764 5.85801 59.8367 7.63627C59.3456 13.9244 58.8465 20.2125 58.3506 26.5007C57.983 31.1646 57.6219 35.8285 57.2512 40.4925C57.1709 41.51 56.8082 41.847 55.7586 41.8535C53.6642 41.8663 51.5697 41.8567 49.4753 41.8583V41.8567Z" fill="white"/>
<path d="M68.184 75.1366C61.7723 75.1366 55.3622 75.1254 48.9505 75.1478C47.9121 75.1511 47.1225 74.8895 46.3794 74.0725C44.3299 71.816 42.1793 69.6493 40.0495 67.4666C39.6435 67.051 39.4509 66.6289 39.4557 66.0334C39.4814 62.57 39.4862 59.1049 39.4557 55.6415C39.4493 54.9498 39.6788 54.4843 40.1988 54.0494C42.2242 52.3626 44.2288 50.6485 46.2285 48.9313C46.6249 48.591 47.0438 48.445 47.567 48.445C60.6216 48.4546 73.6777 48.4562 86.7322 48.4434C87.3694 48.4434 87.8412 48.6167 88.3067 49.0741C90.6852 51.4109 93.0942 53.7156 95.5096 56.0138C95.898 56.383 96.0745 56.7842 96.0745 57.3074C96.0697 61.0822 96.0697 64.8554 96.0778 68.6302C96.0778 68.9705 95.9718 69.2144 95.7102 69.4327C93.5404 71.2286 91.3753 73.0325 89.2135 74.8381C88.7881 75.1944 88.2842 75.1093 87.8043 75.1093C81.2642 75.1174 74.7225 75.1141 68.1824 75.1141C68.1824 75.1206 68.1824 75.1286 68.1824 75.135L68.184 75.1366ZM67.1938 73.0919C73.5557 73.0919 79.9177 73.0871 86.2796 73.1C86.7996 73.1 87.2153 72.9764 87.6198 72.6345C89.4799 71.0697 91.3544 69.5226 93.237 67.9866C93.611 67.6817 93.7586 67.3431 93.757 66.8568C93.7394 63.5731 93.7394 60.2878 93.757 57.0025C93.7602 56.5242 93.611 56.1759 93.2788 55.8389C91.4844 54.0125 89.6949 52.1813 87.9375 50.3211C87.4914 49.8477 87.0227 49.6519 86.3791 49.6519C73.6296 49.6631 60.8784 49.6615 48.1288 49.6519C47.6521 49.6519 47.2958 49.8124 46.9427 50.1077C45.0986 51.65 43.2482 53.1875 41.3832 54.7042C40.9643 55.0445 40.7926 55.412 40.7958 55.9577C40.8183 59.1643 40.8183 62.371 40.7958 65.5776C40.7926 66.1378 40.9435 66.5502 41.3399 66.9515C43.0684 68.6976 44.7905 70.4502 46.4644 72.2477C47.0438 72.8704 47.6537 73.108 48.4963 73.1048C54.7282 73.0775 60.9618 73.0903 67.1954 73.0903L67.1938 73.0919Z" fill="white"/>
<path d="M56.4407 52.3995C58.7165 52.3995 60.9923 52.4204 63.2665 52.3867C63.9502 52.3771 64.2359 52.5408 64.207 53.2903C64.1508 54.762 64.1588 56.2385 64.2038 57.7102C64.223 58.3715 63.9871 58.5368 63.358 58.5336C59.5045 58.5095 55.6527 58.5416 51.7992 58.5047C51.0401 58.4983 50.7689 58.6716 50.7737 59.4837C50.7897 62.8733 50.281 66.1811 48.9986 69.3444C48.5043 70.5626 48.5428 70.5192 47.5205 69.6879C46.8785 69.1663 46.8432 68.7393 47.1802 67.9947C48.2748 65.5792 48.6182 62.9824 48.6873 60.3584C48.7499 57.9558 48.7274 55.5484 48.7049 53.1442C48.7001 52.5648 48.8831 52.3819 49.4576 52.3883C51.7848 52.414 54.1119 52.3979 56.4391 52.3979L56.4407 52.3995ZM56.4407 56.5258C58.0424 56.5258 59.6474 56.4728 61.2459 56.5467C62.1366 56.5868 62.1109 56.1149 62.1077 55.497C62.1045 54.8647 62.1543 54.3688 61.2202 54.3864C58.2238 54.4426 55.2258 54.3945 52.2277 54.4121C50.7063 54.4201 50.8138 54.0927 50.7945 55.871C50.7897 56.3814 50.9823 56.5402 51.4782 56.5338C53.1313 56.5114 54.786 56.5258 56.4391 56.5258H56.4407Z" fill="white"/>
<path d="M74.7947 60.8704C74.7947 63.3259 74.8027 65.7815 74.7915 68.237C74.7835 70.0923 73.1368 71.1869 71.4115 70.4967C71.2109 70.4165 70.731 69.1968 70.845 68.9656C71.0344 68.5869 71.3907 68.7955 71.6699 68.8003C72.5767 68.818 72.8463 68.6126 72.872 67.7042C72.9009 66.6449 72.8736 65.5857 72.8832 64.5248C72.8865 64.1396 72.7372 63.9374 72.3376 63.9583C72.3119 63.9583 72.2862 63.9583 72.2605 63.9583C70.2158 63.8266 70.2239 63.8266 69.9591 65.8697C69.7681 67.3382 69.3797 68.7522 68.7891 70.1132C68.6238 70.4935 68.4633 70.6284 68.1439 70.2753C68.0749 70.1982 67.9994 70.1212 67.9128 70.0682C67.1199 69.5851 67.0413 69.0234 67.4088 68.1423C68.2065 66.234 68.3301 64.1813 68.3301 62.1302C68.3301 59.1322 68.3477 56.1342 68.3172 53.1362C68.3108 52.4878 68.5098 52.2952 69.1518 52.3112C70.7535 52.353 72.3568 52.3626 73.9586 52.308C74.676 52.284 74.8156 52.5472 74.8076 53.1972C74.7755 55.7554 74.7947 58.3137 74.7931 60.8736L74.7947 60.8704ZM72.8849 55.8116C72.8849 55.6062 72.8849 55.3991 72.8849 55.1937C72.8827 54.5143 72.5441 54.1735 71.8689 54.1714C70.2335 54.1666 70.2271 54.1666 70.2367 55.8726C70.2447 57.4053 70.065 57.2384 71.5062 57.2384C73.0421 57.2384 72.872 57.4246 72.8865 55.8116H72.8849ZM72.8849 60.5879C72.8624 59.0905 73.0967 59.1515 71.6603 59.1595C69.9735 59.1691 70.2463 58.9717 70.2383 60.6794C70.2303 62.1527 70.057 62.0323 71.4436 62.0307C73.0726 62.0275 72.8672 62.2089 72.8849 60.5879Z" fill="white"/>
<path d="M84.6635 61.4176C84.5559 63.1991 83.7599 64.6917 82.7841 66.1073C82.2368 66.9017 82.2175 66.8889 83.0649 67.396C83.8417 67.8614 84.641 68.2852 85.4852 68.6158C85.8591 68.7618 85.9602 68.9319 85.7179 69.3027C84.6731 70.8996 85.1802 70.7808 83.4999 69.9479C82.7359 69.5691 82.0009 69.1261 81.3412 68.5837C80.948 68.2595 80.6527 68.2835 80.2595 68.5837C79.2275 69.3749 78.0624 69.9286 76.8699 70.439C76.3868 70.6444 76.0963 70.5593 75.8764 70.1003C75.7994 69.9382 75.6967 69.7842 75.5811 69.6461C75.1526 69.1358 75.2232 68.834 75.8893 68.6045C76.894 68.2579 77.8152 67.7298 78.7043 67.1473C79.0735 66.9065 79.2115 66.6979 78.8648 66.3015C77.9532 65.2582 77.2904 64.0674 76.8603 62.7481C76.8041 62.578 76.7527 62.4063 76.5826 62.2988C76.3627 62.1591 75.9326 62.3758 75.8957 61.9553C75.854 61.469 75.8684 60.9747 75.8925 60.4852C75.9069 60.1963 76.1653 60.2204 76.366 60.2204C78.9499 60.2172 81.5338 60.1963 84.1178 60.2316C85.0214 60.2444 84.4372 61.0292 84.6635 61.4144V61.4176ZM80.6495 62.2394C80.1857 62.2394 79.7235 62.2474 79.2596 62.2362C78.8135 62.2249 78.6257 62.3662 78.8295 62.8316C79.1955 63.6613 79.6689 64.4189 80.2579 65.1106C80.5548 65.4589 80.757 65.3433 80.9882 65.0512C81.4857 64.4237 81.9286 63.7641 82.2689 63.037C82.6156 62.2955 82.5803 62.2442 81.728 62.2362C81.3685 62.2329 81.0074 62.2362 80.6479 62.2362L80.6495 62.2394Z" fill="white"/>
<path d="M58.0938 64.0208C58.0938 62.7032 58.1195 61.3855 58.0825 60.0679C58.0665 59.4789 58.2767 59.2606 58.8433 59.3312C59.0214 59.3537 59.206 59.3521 59.3858 59.3312C59.909 59.2734 60.1481 59.4644 60.1128 60.023C60.0775 60.5895 60.1224 61.1592 60.1016 61.7274C60.0839 62.241 60.2556 62.3758 60.7451 62.172C61.6038 61.8141 62.4736 61.4722 63.2536 60.9634C63.7688 60.6264 64.0657 60.7468 64.3707 61.2331C65.0897 62.379 65.4364 62.1736 63.8972 62.8958C62.8685 63.3789 61.8253 63.8379 60.7323 64.1541C60.2524 64.2937 60.0743 64.5553 60.0967 65.0496C60.1304 65.7975 60.0935 66.5486 60.1112 67.2965C60.132 68.1664 60.3519 68.3702 61.2362 68.4071C63.0964 68.4826 63.1959 68.3959 63.4382 66.4956C63.5618 65.5263 63.549 65.5824 64.4541 65.7815C65.271 65.9612 65.6081 66.3127 65.3625 67.1633C65.2197 67.656 65.2133 68.1872 65.0785 68.6816C64.7623 69.8307 64.3001 70.2095 63.098 70.2672C62.1703 70.3106 61.2378 70.3074 60.3086 70.2785C58.8353 70.2335 58.1371 69.5338 58.1034 68.0508C58.0713 66.7075 58.097 65.3642 58.097 64.0208H58.0938Z" fill="white"/>
<path d="M83.7166 54.6464C83.7166 55.1375 83.7326 55.6303 83.7133 56.1198C83.6844 56.8243 83.9557 57.187 84.7084 57.1565C85.0182 57.1437 85.4772 56.9768 85.6136 57.3539C85.7853 57.8322 85.7227 58.3747 85.6328 58.8851C85.5991 59.0744 85.4066 59.0776 85.2541 59.076C84.6089 59.0696 83.9557 59.1114 83.3185 59.0279C82.309 58.8963 81.7842 58.3025 81.7104 57.2448C81.6574 56.4985 81.6654 55.7458 81.6879 54.9963C81.704 54.4811 81.5499 54.2227 80.9898 54.2596C80.3719 54.2998 79.6497 54.0959 79.1585 54.3527C78.5615 54.6641 78.9403 55.4794 78.8456 56.0668C78.6273 57.423 78.0672 58.5705 77.0497 59.4997C76.7447 59.779 76.4863 59.8448 76.2231 59.4676C76.1942 59.4259 76.1541 59.3906 76.122 59.3505C75.8572 59.0327 75.4624 58.7518 75.3645 58.3891C75.2537 57.9751 75.8283 57.8483 76.0626 57.5562C76.6067 56.8757 76.849 56.1117 76.8555 55.2579C76.8619 54.4827 76.8715 53.7059 76.8555 52.9307C76.8474 52.5279 76.9469 52.3112 77.414 52.3145C79.3271 52.3321 81.2401 52.3289 83.1532 52.3177C83.5496 52.3161 83.7198 52.4701 83.7133 52.8617C83.7037 53.4556 83.7101 54.051 83.7101 54.6448H83.7166V54.6464Z" fill="white"/>
<path d="M52.9532 59.336C53.685 59.1483 53.8295 59.5784 53.8118 60.3247C53.7717 62.0516 53.8038 62.0516 55.5098 62.0516C55.7426 62.0516 55.9801 62.0805 56.2064 62.0468C56.9174 61.9392 57.0859 62.2667 57.0602 62.9247C57.0185 64.016 57.0538 64.016 55.9608 64.0176C54.5185 64.0198 53.7974 64.7329 53.7974 66.157C53.7974 66.2084 53.7974 66.2597 53.7974 66.3127C53.8231 68.1247 53.547 68.0476 55.3654 67.457C55.4152 67.441 55.4617 67.4217 55.5115 67.404C56.6397 67.0028 57.1003 67.3447 57.1116 68.5612C57.1132 68.8324 56.9703 68.9207 56.7633 68.9929C55.1776 69.5514 53.5598 70.004 51.9341 70.4293C51.5794 70.5224 51.4012 70.4037 51.3033 70.0666C51.2102 69.744 51.0963 69.4263 50.9807 69.1117C50.878 68.8308 50.9053 68.6174 51.207 68.4745C51.7399 68.2242 51.7912 67.7443 51.7896 67.2275C51.7832 64.9517 51.7864 62.6775 51.788 60.4017C51.788 59.6902 52.1769 59.335 52.9548 59.336H52.9532Z" fill="white"/>
</g>
<defs>
<clipPath id="clip0_26_479">
<rect width="140" height="75.1478" fill="white"/>
</clipPath>
</defs>
</svg>
