<svg width="149" height="34" viewBox="0 0 149 34" fill="none" xmlns="http://www.w3.org/2000/svg">
<rect y="0.5" width="149" height="33" rx="5" fill="white"/>
<path d="M30.732 17.24C31.5853 17.44 32.2453 17.8533 32.712 18.48C33.192 19.0933 33.432 19.8067 33.432 20.62C33.432 21.86 33.0186 22.82 32.192 23.5C31.3786 24.1667 30.2053 24.5 28.672 24.5H21.252V10.34H28.472C29.912 10.34 31.0453 10.6533 31.872 11.28C32.6986 11.9067 33.112 12.82 33.112 14.02C33.112 14.8467 32.892 15.5467 32.452 16.12C32.0253 16.68 31.452 17.0533 30.732 17.24ZM25.692 15.86H27.412C27.812 15.86 28.1053 15.78 28.292 15.62C28.492 15.46 28.592 15.2133 28.592 14.88C28.592 14.5333 28.492 14.28 28.292 14.12C28.1053 13.9467 27.812 13.86 27.412 13.86H25.692V15.86ZM27.712 20.94C28.112 20.94 28.4053 20.8667 28.592 20.72C28.792 20.56 28.892 20.3067 28.892 19.96C28.892 19.28 28.4986 18.94 27.712 18.94H25.692V20.94H27.712ZM39.2638 10.34V18.32C39.2638 18.9733 39.4038 19.4933 39.6838 19.88C39.9772 20.2533 40.4438 20.44 41.0838 20.44C41.7238 20.44 42.1972 20.2533 42.5038 19.88C42.8105 19.4933 42.9638 18.9733 42.9638 18.32V10.34H47.3838V18.32C47.3838 19.6667 47.1038 20.82 46.5438 21.78C45.9838 22.7267 45.2172 23.44 44.2438 23.92C43.2705 24.4 42.1838 24.64 40.9838 24.64C39.7838 24.64 38.7172 24.4 37.7838 23.92C36.8638 23.44 36.1438 22.7267 35.6238 21.78C35.1038 20.8333 34.8438 19.68 34.8438 18.32V10.34H39.2638ZM62.8988 10.34L57.8188 20.2V24.5H53.3788V20.2L48.2988 10.34H53.3788L55.6388 15.36L57.8988 10.34H62.8988ZM80.8866 24.5H76.4466L71.7466 17.38V24.5H67.3066V10.34H71.7466L76.4466 17.58V10.34H80.8866V24.5ZM89.7926 24.64C88.4592 24.64 87.2326 24.3267 86.1126 23.7C85.0059 23.0733 84.1259 22.2067 83.4726 21.1C82.8192 19.9933 82.4926 18.7467 82.4926 17.36C82.4926 15.9733 82.8192 14.7267 83.4726 13.62C84.1259 12.5133 85.0059 11.6533 86.1126 11.04C87.2326 10.4133 88.4592 10.1 89.7926 10.1C91.1259 10.1 92.3459 10.4133 93.4526 11.04C94.5592 11.6533 95.4326 12.5133 96.0726 13.62C96.7259 14.7267 97.0526 15.9733 97.0526 17.36C97.0526 18.7467 96.7259 19.9933 96.0726 21.1C95.4326 22.2067 94.5526 23.0733 93.4326 23.7C92.3259 24.3267 91.1126 24.64 89.7926 24.64ZM89.7926 20.5C90.6726 20.5 91.3526 20.22 91.8326 19.66C92.3126 19.0867 92.5526 18.32 92.5526 17.36C92.5526 16.3867 92.3126 15.62 91.8326 15.06C91.3526 14.4867 90.6726 14.2 89.7926 14.2C88.8992 14.2 88.2126 14.4867 87.7326 15.06C87.2526 15.62 87.0126 16.3867 87.0126 17.36C87.0126 18.32 87.2526 19.0867 87.7326 19.66C88.2126 20.22 88.8992 20.5 89.7926 20.5ZM119.054 10.34L115.814 24.5H110.294L108.654 16.46L107.014 24.5H101.494L98.2543 10.34H103.034L104.314 19.26L106.234 10.34H111.074L112.994 19.26L114.274 10.34H119.054ZM126.626 9.4L126.106 18.88H122.306L121.786 9.4H126.626ZM124.206 24.66C123.433 24.66 122.813 24.4533 122.346 24.04C121.88 23.6267 121.646 23.1067 121.646 22.48C121.646 21.84 121.88 21.3133 122.346 20.9C122.813 20.4733 123.433 20.26 124.206 20.26C124.966 20.26 125.58 20.4733 126.046 20.9C126.513 21.3133 126.746 21.84 126.746 22.48C126.746 23.1067 126.513 23.6267 126.046 24.04C125.58 24.4533 124.966 24.66 124.206 24.66Z" fill="#00B2D7"/>
</svg>
