<svg width="33" height="34" viewBox="0 0 33 34" fill="none" xmlns="http://www.w3.org/2000/svg">
<rect y="0.5" width="33" height="33" rx="5" fill="white"/>
<path d="M24.903 20.2618L22.8281 12.0781C22.7735 11.8651 22.658 11.6726 22.4956 11.5242C22.3333 11.3758 22.1312 11.2781 21.9141 11.2428L19.3786 10.8266C19.0991 10.7816 18.8128 10.8422 18.5755 10.9966C18.3382 11.151 18.1668 11.3881 18.0947 11.6619L18.0799 11.7216C18.0704 11.7596 18.0688 11.7992 18.0754 11.8378C18.082 11.8763 18.0966 11.9131 18.1183 11.9458C18.1399 11.9784 18.1681 12.0062 18.2011 12.0272C18.2341 12.0483 18.2711 12.0623 18.3098 12.0683C18.8916 12.1537 19.4656 12.2858 20.0262 12.4634C20.1663 12.5057 20.2851 12.5997 20.3585 12.7264C20.4319 12.853 20.4543 13.0029 20.4213 13.1455C20.4024 13.2198 20.3684 13.2894 20.3215 13.3501C20.2746 13.4108 20.2158 13.4613 20.1487 13.4984C20.0816 13.5356 20.0076 13.5586 19.9313 13.5661C19.855 13.5736 19.7779 13.5654 19.7048 13.542C17.6249 12.9041 15.4018 12.9017 13.3205 13.535C13.1796 13.5824 13.0259 13.5736 12.8913 13.5107C12.7567 13.4477 12.6516 13.3353 12.5977 13.1968C12.572 13.1257 12.561 13.0502 12.5652 12.9748C12.5694 12.8994 12.5887 12.8256 12.6221 12.7578C12.6554 12.69 12.702 12.6296 12.7592 12.5803C12.8164 12.5309 12.8829 12.4936 12.9548 12.4705C13.5224 12.2897 14.1037 12.1552 14.693 12.0683C14.7317 12.0623 14.7687 12.0483 14.8017 12.0272C14.8347 12.0062 14.8629 11.9784 14.8845 11.9458C14.9062 11.9131 14.9208 11.8763 14.9274 11.8378C14.934 11.7992 14.9325 11.7596 14.9229 11.7216L14.9081 11.6619C14.836 11.3879 14.6643 11.1506 14.4267 10.9963C14.1891 10.842 13.9025 10.7817 13.6228 10.8273L11.0859 11.2435C10.8689 11.2787 10.6669 11.3764 10.5046 11.5246C10.3422 11.6729 10.2266 11.8652 10.1719 12.0781L8.09696 20.2618C8.0319 20.519 8.06021 20.791 8.17686 21.0293C8.29351 21.2677 8.49093 21.4569 8.73399 21.5633L13.4449 23.6523C13.5866 23.7152 13.7396 23.7486 13.8946 23.7502C14.0496 23.7519 14.2033 23.7218 14.3463 23.6619C14.4893 23.602 14.6185 23.5135 14.726 23.4018C14.8335 23.2901 14.917 23.1576 14.9714 23.0124L15.2168 22.348C15.2314 22.3082 15.2369 22.2656 15.2327 22.2234C15.2285 22.1812 15.2149 22.1405 15.1928 22.1043C15.1707 22.0681 15.1407 22.0374 15.105 22.0145C15.0693 21.9915 15.029 21.9769 14.9869 21.9718C14.3038 21.8891 13.6299 21.7431 12.9738 21.5359C12.8343 21.4934 12.716 21.3997 12.6428 21.2735C12.5696 21.1474 12.5469 20.9981 12.5794 20.8559C12.5982 20.7814 12.6321 20.7115 12.6789 20.6506C12.7258 20.5897 12.7846 20.539 12.8518 20.5017C12.9191 20.4645 12.9932 20.4413 13.0697 20.4338C13.1462 20.4263 13.2234 20.4345 13.2966 20.458C15.3843 21.0973 17.6157 21.0973 19.7034 20.458C19.7765 20.4346 19.8536 20.4264 19.93 20.434C20.0064 20.4415 20.0804 20.4646 20.1475 20.5018C20.2146 20.539 20.2734 20.5896 20.3203 20.6504C20.3671 20.7111 20.401 20.7809 20.4199 20.8552C20.4527 20.9976 20.4303 21.147 20.357 21.2734C20.2838 21.3998 20.1653 21.4936 20.0255 21.5359C19.3696 21.7432 18.696 21.8892 18.0131 21.9718C17.971 21.9769 17.9307 21.9915 17.895 22.0145C17.8593 22.0374 17.8293 22.0681 17.8072 22.1043C17.7851 22.1405 17.7715 22.1812 17.7673 22.2234C17.7632 22.2656 17.7686 22.3082 17.7832 22.348L18.0286 23.0124C18.0831 23.1575 18.1667 23.2899 18.2742 23.4016C18.3817 23.5132 18.5109 23.6017 18.6538 23.6616C18.7968 23.7215 18.9504 23.7516 19.1054 23.75C19.2604 23.7484 19.4134 23.7151 19.5551 23.6523L24.266 21.5633C24.5091 21.4569 24.7065 21.2677 24.8231 21.0293C24.9398 20.791 24.9681 20.519 24.903 20.2618ZM13.9688 18.6875C13.8019 18.6875 13.6387 18.638 13.5 18.5453C13.3612 18.4526 13.2531 18.3208 13.1892 18.1666C13.1254 18.0125 13.1087 17.8428 13.1412 17.6791C13.1738 17.5155 13.2541 17.3651 13.3721 17.2471C13.4901 17.1291 13.6405 17.0488 13.8041 17.0162C13.9678 16.9837 14.1375 17.0004 14.2916 17.0642C14.4458 17.1281 14.5776 17.2362 14.6703 17.375C14.763 17.5137 14.8125 17.6769 14.8125 17.8438C14.8125 18.0675 14.7236 18.2821 14.5654 18.4404C14.4071 18.5986 14.1925 18.6875 13.9688 18.6875ZM19.0313 18.6875C18.8644 18.6875 18.7012 18.638 18.5625 18.5453C18.4237 18.4526 18.3156 18.3208 18.2517 18.1666C18.1879 18.0125 18.1712 17.8428 18.2037 17.6791C18.2363 17.5155 18.3166 17.3651 18.4346 17.2471C18.5526 17.1291 18.703 17.0488 18.8666 17.0162C19.0303 16.9837 19.2 17.0004 19.3541 17.0642C19.5083 17.1281 19.6401 17.2362 19.7328 17.375C19.8255 17.5137 19.875 17.6769 19.875 17.8438C19.875 18.0675 19.7861 18.2821 19.6279 18.4404C19.4696 18.5986 19.255 18.6875 19.0313 18.6875Z" fill="#00B2D7"/>
</svg>
