<svg width="102" height="32" viewBox="0 0 102 32" fill="none" xmlns="http://www.w3.org/2000/svg">
<g clip-path="url(#clip0_26_445)">
<path d="M0.0201849 1.41423C0.251887 0.0484641 1.36329 0.64847 19.4553 0.500165C27.9658 0.430374 32.696 16.5103 21.5935 21.4286C17.5075 23.2393 13.9992 21.5818 13.9483 22.1663C13.3032 29.504 13.7406 30.2514 12.3687 30.3221C12.3427 30.3231 3.50053 30.5228 2.49584 30.2029C1.19696 29.789 1.81996 27.9812 1.37579 23.7792C1.37483 23.7695 -0.194212 2.69179 0.0221078 1.41423H0.0201849ZM15.2116 15.2396C15.6923 15.2396 15.9788 15.289 15.9403 14.8111C15.9394 14.7947 15.6952 12.5478 15.6894 12.5129C15.2789 9.95099 15.4827 9.25308 15.1078 9.0912C14.6876 8.90994 14.7741 10.2524 14.6395 11.8053C14.3309 15.3627 14.2233 15.2124 15.2116 15.2396Z" fill="#273164"/>
<path d="M79.9219 0.505014C87.2268 0.505014 87.2037 0.0649452 87.0836 2.20422C86.8865 5.73059 86.6375 9.90931 86.2769 16.7284C85.9548 22.8128 85.1915 21.9511 88.5315 21.9317C88.6286 21.9317 88.7266 21.9085 88.8218 21.8862C88.9987 21.8445 89.0525 21.7844 89.0535 21.6031C89.0641 18.3617 88.1459 2.1606 88.2305 1.46754C88.3074 0.841367 88.8083 0.524401 89.3102 0.512769C89.6957 0.504045 100.804 0.501137 100.815 0.501137C102.464 0.503076 101.985 1.89986 101.752 5.51153C100.418 26.2801 100.474 25.4164 99.9474 26.2394C96.5334 31.5628 82.8014 33.6294 76.2935 27.7951C74.1169 25.8439 74.9177 26.2016 73.7371 13.6499C73.7371 13.6402 72.7017 1.52473 72.7315 1.33087C72.9045 0.21325 73.5496 0.499198 79.9219 0.499198V0.504045V0.505014Z" fill="#273164"/>
<path d="M66.5717 13.8699C66.7495 13.867 71.9931 13.8089 72.3325 13.8951C73.3256 14.1462 72.6949 14.593 71.5422 30.6672C71.4816 31.5066 70.9682 31.5502 67.7734 31.7354C63.274 31.9971 63.7412 32.8588 63.1202 28.966C63.0654 28.6219 63.0567 28.7315 62.0366 29.2365C57.4766 31.493 53.0377 31.1412 49.9881 29.4817C47.0885 27.9046 46.2059 26.1764 45.0012 23.0852C43.5129 19.2661 44.0254 11.5552 45.1349 8.57941C48.4758 -0.38191 56.2575 -0.385788 65.99 0.227789C66.8658 0.28304 69.8616 0.828764 69.9818 0.850089C70.6683 0.970284 71.1124 1.24169 71.1201 1.96771C71.1374 3.58065 70.102 11.4689 70.0914 11.72C70.0645 12.3413 69.5309 12.7891 68.8396 12.6263C67.9657 12.4198 61.0531 11.1113 59.7244 10.8651C58.9668 10.7245 59.2735 10.7768 59.1206 17.2829C59.1139 17.5533 59.0341 22.1876 59.0918 22.4513C59.1822 22.8623 59.5562 22.7556 60.1513 22.5695C61.0694 22.2836 61.7992 22.2981 61.7751 21.8164C61.7492 21.2871 60.9252 16.8961 60.9233 16.8855C60.1186 13.2602 60.0051 13.869 66.5707 13.869L66.5717 13.8699Z" fill="#273164"/>
<path d="M36.1946 0.50889C43.6418 0.50889 43.3879 0.472056 43.6571 0.590312C44.3888 0.912125 44.2782 1.27174 44.0273 3.91022C43.8581 5.68988 44.0513 3.91506 42.6053 21.8988C41.8372 31.4572 42.9716 30.3793 38.8433 30.3793C31.3971 30.3793 31.6663 30.4045 31.3894 30.3241C30.4386 30.0459 30.7232 30.0284 29.9386 21.8474C28.9464 10.4793 28.3273 3.70472 28.2485 2.28952C28.1167 -0.068822 28.0119 0.520522 36.1946 0.515675C36.1946 0.513736 36.1946 0.510828 36.1946 0.50889Z" fill="#273164"/>
</g>
<defs>
<clipPath id="clip0_26_445">
<rect width="102" height="32" fill="white"/>
</clipPath>
</defs>
</svg>
