<svg width="33" height="34" viewBox="0 0 33 34" fill="none" xmlns="http://www.w3.org/2000/svg">
<rect y="0.5" width="33" height="33" rx="5" fill="white"/>
<path d="M23.5931 9.84148C23.5059 9.76623 23.3999 9.71618 23.2864 9.69673C23.1729 9.67727 23.0563 9.68916 22.949 9.73109L8.6995 15.3076C8.49755 15.3861 8.32657 15.5281 8.21232 15.7122C8.09806 15.8963 8.0467 16.1126 8.06598 16.3284C8.08525 16.5442 8.17411 16.7479 8.31918 16.9089C8.46426 17.0698 8.65769 17.1793 8.87035 17.2208L12.5625 17.9457V22.0625C12.5617 22.2867 12.6284 22.506 12.7537 22.6919C12.8791 22.8779 13.0574 23.0219 13.2656 23.1052C13.4734 23.1901 13.702 23.2105 13.9216 23.1637C14.1411 23.1169 14.3416 23.0052 14.4968 22.843L16.2771 20.9966L19.1015 23.4688C19.3053 23.6495 19.5681 23.7495 19.8405 23.75C19.9599 23.7499 20.0785 23.7312 20.1921 23.6945C20.3777 23.6356 20.5446 23.5291 20.6762 23.3856C20.8078 23.2421 20.8996 23.0667 20.9423 22.8767L23.7963 10.4609C23.8218 10.349 23.8164 10.2322 23.7806 10.123C23.7448 10.0139 23.68 9.91658 23.5931 9.84148ZM19.8419 22.625L14.0285 17.5273L22.3957 11.5304L19.8419 22.625Z" fill="#00B2D7"/>
</svg>
