<svg width="33" height="34" viewBox="0 0 33 34" fill="none" xmlns="http://www.w3.org/2000/svg">
<rect y="0.5" width="33" height="33" rx="5" fill="white"/>
<path d="M22.6172 23.4582C22.5688 23.5464 22.4976 23.62 22.411 23.6714C22.3244 23.7227 22.2257 23.7498 22.125 23.75H18.75C18.6554 23.75 18.5622 23.726 18.4793 23.6804C18.3963 23.6348 18.3262 23.569 18.2754 23.4891L15.4285 19.0152L11.2913 23.5658C11.1904 23.6741 11.0509 23.7383 10.903 23.7445C10.7552 23.7507 10.6108 23.6983 10.5013 23.5988C10.3917 23.4992 10.3258 23.3605 10.3179 23.2127C10.3099 23.0649 10.3606 22.9199 10.4588 22.8092L14.802 18.028L10.4004 11.1148C10.3462 11.0298 10.3159 10.9317 10.3126 10.8309C10.3093 10.7301 10.3331 10.6303 10.3816 10.5419C10.4302 10.4535 10.5016 10.3797 10.5884 10.3284C10.6752 10.277 10.7742 10.25 10.875 10.25H14.25C14.3447 10.25 14.4378 10.274 14.5208 10.3196C14.6038 10.3652 14.6739 10.431 14.7246 10.5109L17.5716 14.9848L21.7088 10.4342C21.8096 10.3259 21.9491 10.2617 22.097 10.2555C22.2449 10.2493 22.3893 10.3017 22.4988 10.4012C22.6083 10.5008 22.6742 10.6395 22.6822 10.7873C22.6901 10.9351 22.6395 11.0801 22.5413 11.1908L18.1981 15.9685L22.5996 22.8859C22.6535 22.9709 22.6836 23.0689 22.6867 23.1696C22.6898 23.2703 22.6658 23.37 22.6172 23.4582Z" fill="#00B2D7"/>
</svg>
